<?xml version="1.0" standalone="no"?>
<!DOCTYPE svg PUBLIC "-//W3C//DTD SVG 20010904//EN"
 "http://www.w3.org/TR/2001/REC-SVG-20010904/DTD/svg10.dtd">
<svg version="1.0" xmlns="http://www.w3.org/2000/svg"
 width="613.000000pt" height="613.000000pt" viewBox="0 0 613.000000 613.000000"
 preserveAspectRatio="xMidYMid meet">
<metadata>
Created by potrace 1.14, written by Peter Selinger 2001-2017
</metadata>
<g transform="translate(0.000000,613.000000) scale(0.100000,-0.100000)"
fill="#000000" stroke="none">
<path d="M1782 5628 c-6 -35 -27 -117 -46 -183 -120 -424 -352 -835 -678
-1199 -92 -103 -371 -380 -513 -511 -60 -55 -135 -125 -168 -155 -32 -30 -67
-61 -76 -70 -10 -8 -51 -44 -91 -80 -40 -36 -83 -71 -96 -78 -40 -21 -108
-131 -108 -174 -1 -51 25 -75 152 -141 154 -80 215 -130 352 -288 148 -170
251 -384 350 -726 18 -60 35 -111 39 -116 8 -8 171 -13 1041 -32 358 -8 398
-10 407 -18 8 -8 1 -11 -442 -192 -198 -81 -373 -153 -390 -160 -16 -7 -81
-34 -142 -59 -62 -25 -164 -67 -225 -92 -62 -25 -126 -52 -143 -59 -16 -7 -52
-22 -80 -33 -427 -174 -795 -327 -816 -339 -81 -48 -98 -220 -33 -345 40 -77
123 -138 187 -138 19 0 114 33 218 76 101 41 254 104 339 139 85 35 209 86
275 113 66 27 149 61 185 76 36 15 74 31 85 35 11 5 70 29 130 54 267 111 413
171 450 184 22 8 44 19 49 24 6 5 16 9 23 9 7 0 32 9 56 19 23 11 83 36 132
56 50 19 99 40 110 45 135 62 172 73 255 75 97 3 142 19 191 68 34 34 51 61
68 108 8 23 32 35 193 93 101 37 194 72 208 78 14 6 79 30 145 53 180 65 397
145 420 154 80 35 206 75 235 75 62 0 151 -21 247 -58 77 -29 115 -62 253
-216 114 -128 181 -193 235 -230 47 -32 154 -85 160 -79 3 4 64 217 70 246 7
37 89 298 177 568 l91 280 66 49 c83 61 105 90 105 138 0 37 -18 60 -60 78 -7
3 6 51 41 143 29 76 57 148 64 160 6 12 17 41 26 65 16 48 133 327 172 412 14
30 42 93 63 140 80 179 168 361 370 759 13 25 15 43 9 65 -4 17 -33 123 -64
236 -31 113 -58 212 -60 220 -2 8 -16 58 -31 110 -14 52 -35 129 -46 170 -11
41 -21 77 -23 78 -2 2 -116 -81 -254 -185 -138 -103 -263 -197 -278 -208 -15
-11 -47 -36 -72 -56 -25 -19 -58 -43 -73 -53 l-27 -18 1 49 c1 81 -11 119 -56
167 -28 31 -55 48 -86 56 -38 10 -296 13 -610 8 -25 -1 -54 2 -65 5 -11 3
-245 9 -520 12 -710 9 -677 7 -760 43 -168 72 -615 266 -663 288 -29 13 -55
24 -57 24 -3 0 -24 9 -48 20 -35 16 -487 212 -523 226 -6 3 -15 -21 -22 -58z"/>
</g>
</svg>
